<svg width="260" height="70" viewBox="0 0 260 70" fill="none" xmlns="http://www.w3.org/2000/svg">
  <defs>
    <linearGradient id="bagGrad" x1="0%" y1="0%" x2="0%" y2="100%">
      <stop offset="0%" style="stop-color:#3B82F6;stop-opacity:1" />
      <stop offset="100%" style="stop-color:#2563EB;stop-opacity:1" />
    </linearGradient>
    <linearGradient id="globeGrad" x1="0%" y1="0%" x2="100%" y2="100%">
      <stop offset="0%" style="stop-color:#60A5FA;stop-opacity:0.2" />
      <stop offset="100%" style="stop-color:#3B82F6;stop-opacity:0.15" />
    </linearGradient>
    <filter id="shadow">
      <feDropShadow dx="0" dy="2" stdDeviation="3" flood-opacity="0.25"/>
    </filter>
  </defs>
  
  <!-- Globo terrestre ao fundo com pontos de conexão -->
  <g opacity="0.5">
    <circle cx="155" cy="35" r="32" fill="url(#globeGrad)" stroke="#3B82F6" stroke-width="1.5" opacity="0.5"/>
    <!-- Linhas do globo (latitude) -->
    <ellipse cx="155" cy="35" rx="32" ry="10" fill="none" stroke="#3B82F6" stroke-width="1" opacity="0.4"/>
    <ellipse cx="155" cy="35" rx="32" ry="20" fill="none" stroke="#3B82F6" stroke-width="1" opacity="0.4"/>
    <!-- Linha vertical (longitude) -->
    <ellipse cx="155" cy="35" rx="10" ry="32" fill="none" stroke="#3B82F6" stroke-width="1" opacity="0.4"/>
    <ellipse cx="155" cy="35" rx="20" ry="32" fill="none" stroke="#3B82F6" stroke-width="1" opacity="0.4"/>
    <!-- Pontos de localização no globo -->
    <circle cx="140" cy="25" r="2" fill="#F97316" opacity="0.8"/>
    <circle cx="165" cy="30" r="2" fill="#F97316" opacity="0.8"/>
    <circle cx="150" cy="45" r="2" fill="#F97316" opacity="0.8"/>
    <circle cx="175" cy="40" r="2" fill="#F97316" opacity="0.8"/>
  </g>
  
  <!-- Sacola com sombra -->
  <g filter="url(#shadow)">
    <path d="M18 22 L15 49 C15 51.5 16 53 18 53 L34 53 C36 53 37 51.5 37 49 L34 22 Z" fill="url(#bagGrad)" stroke="#2563EB" stroke-width="2.5" stroke-linejoin="round"/>
    <path d="M19 22 C19 16 22.5 13 26 13 C29.5 13 33 16 33 22" stroke="#F97316" stroke-width="3.5" fill="none" stroke-linecap="round"/>
    <circle cx="23" cy="33" r="2.5" fill="white"/>
    <circle cx="29" cy="33" r="2.5" fill="white"/>
    <ellipse cx="22" cy="27" rx="4" ry="5" fill="white" opacity="0.35"/>
  </g>
  
  <!-- Texto arredondado e grosso -->
  <text x="50" y="44" font-family="'Segoe UI', 'Rounded Mplus 1c', Arial, sans-serif" font-size="40" font-weight="900" letter-spacing="-1.5" stroke-linejoin="round">
    <tspan fill="#F97316">MYD</tspan><tspan fill="#3B82F6">SHOP</tspan>
  </text>
  
  <!-- Tagline -->
  <text x="50" y="59" font-family="'Segoe UI', Arial, sans-serif" font-size="9" font-weight="600" fill="#6B7280" letter-spacing="2.5">MARKETPLACE ONLINE</text>
</svg>